<?xml version="1.0" encoding="UTF-8"?>
<svg width="640px" height="640px" viewBox="0 0 640 640" version="1.1" xmlns="http://www.w3.org/2000/svg" xmlns:xlink="http://www.w3.org/1999/xlink">
    <!-- Generator: Sketch 48.1 (47250) - http://www.bohemiancoding.com/sketch -->
    <title>Artboard</title>
    <desc>Created with Sketch.</desc>
    <defs></defs>
    <g id="Page-1" stroke="none" stroke-width="1" fill="none" fill-rule="evenodd">
        <g id="Artboard">
            <g id="Group-26" transform="translate(42.000000, 80.000000)">
                <g>
                    <g id="Group-4" fill="#6C6D70">
                        <g id="Group">
                            <path d="M104.31559,87 L106.830144,87 C109.356785,114.237918 132.310634,135.562946 160.258029,135.562946 C180.533595,135.562946 198.17803,124.336723 207.303628,107.772736 C218.946278,124.917831 238.623275,136.185633 260.936797,136.185633 C291.362784,136.185633 316.882033,115.235314 323.818135,87 L330.68441,87 C338.008504,87 344,92.9806918 344,100.291213 L344,222.709086 C344,230.019607 338.008504,236 330.68441,236 L104.31559,236 C96.9917956,236 91,230.019607 91,222.709086 L91,100.291213 C91,92.9806918 96.9917956,87 104.31559,87 Z M105,207 L121,207 L121,222 L105,222 L105,207 Z M140,207 L156,207 L156,222 L140,222 L140,207 Z M175,207 L191,207 L191,222 L175,222 L175,207 Z M210,207 L226,207 L226,222 L210,222 L210,207 Z M244,207 L260,207 L260,222 L244,222 L244,207 Z M279,207 L295,207 L295,222 L279,222 L279,207 Z M314,207 L330,207 L330,222 L314,222 L314,207 Z" id="Fill-15"></path>
                            <path d="M369,152 C395.211204,135.248471 421.407018,118.623609 448,102 C457.862747,93.6959287 467.329453,95.3815236 466,110 C465.845948,146.253148 465.845948,182.43902 466,219 C467.15963,229.685239 457.132446,233.930615 447,226 C419.769792,208.536355 392.638449,191.443411 366,174 C353.830196,166.858056 356.368446,159.365845 369,152" id="Fill-16"></path>
                            <rect id="Rectangle" x="0" y="0" width="16" height="279"></rect>
                            <rect id="Rectangle-2" x="8" y="0" width="16" height="18"></rect>
                            <rect id="Rectangle-2" x="8" y="261" width="16" height="18"></rect>
                            <rect id="Rectangle" x="541" y="0" width="16" height="279"></rect>
                            <rect id="Rectangle-2" x="533" y="0" width="16" height="18"></rect>
                            <rect id="Rectangle-2" x="533" y="261" width="16" height="18"></rect>
                        </g>
                    </g>
                    <g id="Group-2"></g>
                    <g id="Group-2-Copy" transform="translate(545.000000, 139.500000) scale(-1, 1) translate(-545.000000, -139.500000) translate(533.000000, 0.000000)"></g>
                    <g id="Group-3" transform="translate(173.000000, 315.000000)" fill="#231F20">
                        <g id="Group-6">
                            <polygon id="Fill-21" points="98.6213 0.8137 129.5875 0.8137 129.5875 39.434 98.6213 71.9965"></polygon>
                            <polygon id="Fill-22" points="211.7151 0.7125 98.3704 120.3371 98.3704 82.0263 175.3208 0.8137"></polygon>
                            <polygon id="Fill-23" points="136.7937 88.6823 167.1449 119.3481 207.375 119.3481 156.4001 68.0421"></polygon>
                            <polygon id="Fill-24" points="51.8598 49.3647 77.0859 34.9859 77.0859 61.7053 84.8843 61.7053 84.8843 84.2223 77.0859 84.2223 77.0859 119.9485 51.8598 105.5689 51.8598 84.2223 2.0225 84.2223 2.0225 62.4896 1.7226 62.0052 48.2573 0.4597 79.1798 0.7607 33.4706 61.7053 51.8598 61.7053"></polygon>
                            <path d="M5.7006,143.114 L5.7006,149.9435 L16.9825,149.9435 L16.9825,153.9431 L5.7006,153.9431 L5.7006,164.2817 L0.9463,164.2817 L0.9463,139.1146 L17.5862,139.1146 L17.5862,143.114 L5.7006,143.114 Z M25.2647,139.1146 L25.2647,164.2817 L20.5105,164.2817 L20.5105,139.1146 L25.2647,139.1146 Z M34.4966,139.1146 L34.4966,160.0181 L46.3069,160.0181 L46.3069,164.2817 L29.7423,164.2817 L29.7423,139.1146 L34.4966,139.1146 Z M78.1147,139.1146 L78.1147,164.2817 L73.3604,164.2817 L73.3604,150.5662 C73.3604,149.4718 73.3919,148.233 73.4548,146.8432 L73.543,144.963 L73.6371,143.1015 L73.4863,143.1015 L72.9202,144.8496 L72.3669,146.6043 C71.845,148.1763 71.4488,149.3397 71.1659,150.088 L65.6318,164.2817 L61.28,164.2817 L55.6893,150.2014 C55.3811,149.4278 54.9789,148.2645 54.4695,146.7174 L53.9034,144.963 L53.3311,143.2273 L53.1803,143.2273 L53.2744,145.0571 L53.3626,146.8999 C53.438,148.3274 53.4757,149.5475 53.4757,150.5662 L53.4757,164.2817 L48.7214,164.2817 L48.7214,139.1146 L56.4818,139.1146 L60.9844,150.7737 C61.2925,151.5847 61.695,152.7421 62.1982,154.2575 L62.7515,156.0059 L63.3238,157.7351 L63.4936,157.7351 L64.0282,156.0059 L64.5815,154.27 C65.0342,152.8113 65.4305,151.6542 65.7639,150.8052 L70.191,139.1146 L78.1147,139.1146 Z M113.2997,139.1146 L113.2997,164.2817 L108.5455,164.2817 L108.5455,153.3771 L96.7352,153.3771 L96.7352,164.2817 L91.9809,164.2817 L91.9809,139.1146 L96.7352,139.1146 L96.7352,149.3777 L108.5455,149.3777 L108.5455,139.1146 L113.2997,139.1146 Z M128.1788,138.9258 C132.7505,138.9258 135.6937,139.6866 137.0079,141.2023 C138.3223,142.718 138.9825,146.1073 138.9825,151.3772 C138.9825,157.1378 138.3223,160.7664 137.0016,162.2631 C135.681,163.7598 132.4801,164.5082 127.4052,164.5082 C122.8332,164.5082 119.8841,163.766 118.5444,162.2881 C117.205,160.8104 116.5321,157.5528 116.5321,152.5156 C116.5321,146.5289 117.1923,142.7619 118.5067,141.2275 C119.8211,139.6931 123.0472,138.9258 128.1788,138.9258 Z M127.814,143.0009 C124.5941,143.0009 122.7201,143.4158 122.173,144.2396 C121.6322,145.0636 121.3618,147.9122 121.3618,152.7985 C121.3618,156.4082 121.6761,158.5906 122.3114,159.3261 C122.9466,160.062 124.8206,160.4331 127.9209,160.4331 C130.8955,160.4331 132.6751,160.0181 133.2661,159.1878 C133.8574,158.3578 134.1528,155.8424 134.1528,151.6352 C134.1528,147.4155 133.8699,144.9253 133.3104,144.1517 C132.7505,143.3844 130.9205,143.0009 127.814,143.0009 Z M158.3958,139.1146 L163.1501,139.1146 L163.1501,155.8611 C163.1501,159.3638 162.4772,161.678 161.1313,162.8102 C159.7857,163.9421 157.0375,164.5082 152.8805,164.5082 C148.4973,164.5082 145.6173,163.9735 144.2527,162.9043 C142.8878,161.8354 142.2086,159.5779 142.2086,156.1315 L142.2086,139.1146 L146.9629,139.1146 L146.9629,156.1315 C146.9629,157.9992 147.2962,159.1816 147.9629,159.6847 C148.6294,160.1814 150.1952,160.4331 152.6605,160.4331 C155.1884,160.4331 156.7795,160.1814 157.4272,159.672 C158.075,159.1691 158.3958,157.9238 158.3958,155.9492 L158.3958,139.1146 Z M186.2043,146.4722 L181.5444,146.4722 C181.5192,146.2394 181.5067,146.0696 181.5067,145.9628 C181.3998,144.5542 181.0852,143.6738 180.5696,143.3152 C180.054,142.9569 178.8339,142.7744 176.916,142.7744 C174.6582,142.7744 173.1805,142.9819 172.4889,143.4034 C171.7907,143.8184 171.4449,144.6926 171.4449,146.0319 C171.4449,147.6168 171.7277,148.5664 172.2938,148.887 C172.8534,149.2014 174.7211,149.4468 177.8906,149.6229 C181.6326,149.8304 184.0536,150.365 185.154,151.2202 C186.2545,152.0816 186.8018,153.8677 186.8018,156.578 C186.8018,159.9109 186.1603,162.0681 184.8711,163.0429 C183.582,164.0175 180.7394,164.5082 176.3437,164.5082 C172.3882,164.5082 169.7656,164.0302 168.4702,163.0679 C167.1747,162.112 166.527,160.1689 166.527,157.2447 L166.5146,156.3203 L171.1554,156.3203 L171.1744,156.8549 C171.1744,158.603 171.4763,159.6785 172.0926,160.0683 C172.7088,160.4645 174.3815,160.6593 177.1173,160.6593 C179.2489,160.6593 180.6138,160.4331 181.2048,159.9801 C181.7896,159.5274 182.0853,158.4772 182.0853,156.8297 C182.0853,155.6159 181.8588,154.8108 181.4123,154.4086 C180.9659,154.0123 179.9973,153.7734 178.5196,153.6852 L175.8845,153.5216 C171.9103,153.2892 169.3758,152.7356 168.2689,151.8617 C167.1685,150.9937 166.6152,149.1197 166.6152,146.2522 C166.6152,143.3152 167.2816,141.3658 168.615,140.391 C169.9419,139.4164 172.602,138.9258 176.5889,138.9258 C180.3683,138.9258 182.9152,139.3722 184.2297,140.2717 C185.5441,141.1646 186.198,142.9127 186.198,145.5163 L186.2043,146.4722 Z M194.3734,143.114 L194.3734,149.6416 L206.1834,149.6416 L206.1834,153.1509 L194.3734,153.1509 L194.3734,160.282 L206.938,160.282 L206.938,164.2817 L189.6192,164.2817 L189.6192,139.1146 L206.8249,139.1146 L206.8249,143.114 L194.3734,143.114 Z" id="Fill-25"></path>
                        </g>
                    </g>
                </g>
                <g id="Group-5" transform="translate(150.000000, 453.000000)"></g>
            </g>
        </g>
    </g>
</svg>