<?xml version="1.0" encoding="UTF-8"?>
<svg width="107px" height="106px" viewBox="0 0 107 106" version="1.1" xmlns="http://www.w3.org/2000/svg" xmlns:xlink="http://www.w3.org/1999/xlink">
    <!-- Generator: Sketch 48.1 (47250) - http://www.bohemiancoding.com/sketch -->
    <title>Fill 17</title>
    <desc>Created with Sketch.</desc>
    <defs></defs>
    <g id="Artboard" stroke="none" stroke-width="1" fill="none" fill-rule="evenodd" transform="translate(-250.000000, -99.000000)">
        <g id="Group-26" transform="translate(42.000000, 80.000000)" fill="#6C6D70">
            <g id="Group-4">
                <g>
                    <g id="Group">
                        <g id="Group-7" transform="translate(117.000000, 19.000000)">
                            <path d="M144.1629,0.0813 C173.368,0.0813 197.0429,23.7563 197.0429,52.9613 C197.0429,82.1661 173.368,105.8411 144.1629,105.8411 C114.9581,105.8411 91.2831,82.1661 91.2831,52.9613 C91.2831,23.7563 114.9581,0.0813 144.1629,0.0813 Z M116.2093,26.2113 C122.0688,26.2113 126.8188,30.9614 126.8188,36.8209 C126.8188,42.6801 122.0688,47.4301 116.2093,47.4301 C110.3501,47.4301 105.6001,42.6801 105.6001,36.8209 C105.6001,30.9614 110.3501,26.2113 116.2093,26.2113 Z M116.2093,58.3704 C122.0688,58.3704 126.8188,63.1204 126.8188,68.9799 C126.8188,74.8394 122.0688,79.5894 116.2093,79.5894 C110.3501,79.5894 105.6001,74.8394 105.6001,68.9799 C105.6001,63.1204 110.3501,58.3704 116.2093,58.3704 Z M144.39,74.6155 C150.2494,74.6155 154.9995,79.3655 154.9995,85.225 C154.9995,91.0842 150.2494,95.8345 144.39,95.8345 C138.5305,95.8345 133.7804,91.0842 133.7804,85.225 C133.7804,79.3655 138.5305,74.6155 144.39,74.6155 Z M171.9073,58.7018 C177.7668,58.7018 182.5168,63.4518 182.5168,69.311 C182.5168,75.1705 177.7668,79.9205 171.9073,79.9205 C166.0478,79.9205 161.2978,75.1705 161.2978,69.311 C161.2978,63.4518 166.0478,58.7018 171.9073,58.7018 Z M171.5759,26.2113 C177.4351,26.2113 182.1854,30.9614 182.1854,36.8209 C182.1854,42.6801 177.4351,47.4301 171.5759,47.4301 C165.7164,47.4301 160.9664,42.6801 160.9664,36.8209 C160.9664,30.9614 165.7164,26.2113 171.5759,26.2113 Z M144.0583,10.2974 C149.9175,10.2974 154.6675,15.0477 154.6675,20.9069 C154.6675,26.7664 149.9175,31.5164 144.0583,31.5164 C138.1988,31.5164 133.4488,26.7664 133.4488,20.9069 C133.4488,15.0477 138.1988,10.2974 144.0583,10.2974 Z M144.1629,45.8333 C148.0997,45.8333 151.2909,49.0246 151.2909,52.9613 C151.2909,56.8978 148.0997,60.0893 144.1629,60.0893 C140.2264,60.0893 137.0349,56.8978 137.0349,52.9613 C137.0349,49.0246 140.2264,45.8333 144.1629,45.8333 Z" id="Fill-17"></path>
                        </g>
                    </g>
                </g>
            </g>
        </g>
    </g>
</svg>