<?xml version="1.0" encoding="UTF-8"?>
<svg width="87px" height="87px" viewBox="0 0 87 87" version="1.1" xmlns="http://www.w3.org/2000/svg" xmlns:xlink="http://www.w3.org/1999/xlink">
    <!-- Generator: Sketch 48.1 (47250) - http://www.bohemiancoding.com/sketch -->
    <title>Fill 18</title>
    <desc>Created with Sketch.</desc>
    <defs></defs>
    <g id="Artboard" stroke="none" stroke-width="1" fill="none" fill-rule="evenodd" transform="translate(-159.000000, -119.000000)">
        <g id="Group-26" transform="translate(42.000000, 80.000000)" fill="#6C6D70">
            <g id="Group-4">
                <g>
                    <g id="Group">
                        <g id="Group-7" transform="translate(117.000000, 19.000000)">
                            <path d="M43.3782,20.6622 C66.9996,20.6622 86.1485,39.8111 86.1485,63.4325 C86.1485,87.0539 66.9996,106.2025 43.3782,106.2025 C19.7568,106.2025 0.6082,87.0539 0.6082,63.4325 C0.6082,39.8111 19.7568,20.6622 43.3782,20.6622 Z M20.7691,41.7968 C25.508,41.7968 29.3501,45.6386 29.3501,50.3778 C29.3501,55.1171 25.508,58.9589 20.7691,58.9589 C16.0298,58.9589 12.1877,55.1171 12.1877,50.3778 C12.1877,45.6386 16.0298,41.7968 20.7691,41.7968 Z M20.7691,67.8075 C25.508,67.8075 29.3501,71.6496 29.3501,76.3885 C29.3501,81.1278 25.508,84.9699 20.7691,84.9699 C16.0298,84.9699 12.1877,81.1278 12.1877,76.3885 C12.1877,71.6496 16.0298,67.8075 20.7691,67.8075 Z M43.5619,80.9466 C48.3011,80.9466 52.1429,84.7887 52.1429,89.528 C52.1429,94.2669 48.3011,98.109 43.5619,98.109 C38.8226,98.109 34.9809,94.2669 34.9809,89.528 C34.9809,84.7887 38.8226,80.9466 43.5619,80.9466 Z M65.8184,68.0754 C70.5574,68.0754 74.3994,71.9172 74.3994,76.6564 C74.3994,81.3957 70.5574,85.2374 65.8184,85.2374 C61.0791,85.2374 57.2371,81.3957 57.2371,76.6564 C57.2371,71.9172 61.0791,68.0754 65.8184,68.0754 Z M65.5502,41.7968 C70.2895,41.7968 74.1313,45.6386 74.1313,50.3778 C74.1313,55.1171 70.2895,58.9589 65.5502,58.9589 C60.811,58.9589 56.9692,55.1171 56.9692,50.3778 C56.9692,45.6386 60.811,41.7968 65.5502,41.7968 Z M43.2934,28.9252 C48.0327,28.9252 51.8745,32.7673 51.8745,37.5066 C51.8745,42.2455 48.0327,46.0876 43.2934,46.0876 C38.5542,46.0876 34.7124,42.2455 34.7124,37.5066 C34.7124,32.7673 38.5542,28.9252 43.2934,28.9252 Z M43.3782,57.6671 C46.5624,57.6671 49.1436,60.2486 49.1436,63.4325 C49.1436,66.6164 46.5624,69.1976 43.3782,69.1976 C40.1943,69.1976 37.6131,66.6164 37.6131,63.4325 C37.6131,60.2486 40.1943,57.6671 43.3782,57.6671 Z" id="Fill-18"></path>
                        </g>
                    </g>
                </g>
            </g>
        </g>
    </g>
</svg>